<svg width="3070" height="512" viewBox="0 0 3070 512" fill="none" xmlns="http://www.w3.org/2000/svg">
<rect width="3069.5" height="512" rx="50" fill="#A78BFA"/>
<path d="M1140.65 188.216V214.52H1085.74V242.936H1126.82V268.472H1085.74V323H1052.9V188.216H1140.65ZM1190.74 180.92V323H1157.9V180.92H1190.74ZM1320.32 215.864V323H1287.49V308.408C1284.16 313.144 1279.62 316.984 1273.86 319.928C1268.23 322.744 1261.95 324.152 1255.04 324.152C1246.85 324.152 1239.62 322.36 1233.35 318.776C1227.07 315.064 1222.21 309.752 1218.75 302.84C1215.3 295.928 1213.57 287.8 1213.57 278.456V215.864H1246.21V274.04C1246.21 281.208 1248.07 286.776 1251.78 290.744C1255.49 294.712 1260.48 296.696 1266.75 296.696C1273.15 296.696 1278.21 294.712 1281.92 290.744C1285.63 286.776 1287.49 281.208 1287.49 274.04V215.864H1320.32ZM1376.74 233.72C1380.58 227.832 1385.38 223.224 1391.14 219.896C1396.9 216.44 1403.3 214.712 1410.34 214.712V249.464H1401.31C1393.12 249.464 1386.98 251.256 1382.88 254.84C1378.78 258.296 1376.74 264.44 1376.74 273.272V323H1343.9V215.864H1376.74V233.72ZM1442.54 204.728C1436.78 204.728 1432.05 203.064 1428.33 199.736C1424.75 196.28 1422.96 192.056 1422.96 187.064C1422.96 181.944 1424.75 177.72 1428.33 174.392C1432.05 170.936 1436.78 169.208 1442.54 169.208C1448.17 169.208 1452.78 170.936 1456.37 174.392C1460.08 177.72 1461.93 181.944 1461.93 187.064C1461.93 192.056 1460.08 196.28 1456.37 199.736C1452.78 203.064 1448.17 204.728 1442.54 204.728ZM1458.86 215.864V323H1426.03V215.864H1458.86ZM1588.45 215.864V323H1555.61V308.408C1552.29 313.144 1547.74 316.984 1541.98 319.928C1536.35 322.744 1530.08 324.152 1523.17 324.152C1514.97 324.152 1507.74 322.36 1501.47 318.776C1495.2 315.064 1490.33 309.752 1486.88 302.84C1483.42 295.928 1481.69 287.8 1481.69 278.456V215.864H1514.33V274.04C1514.33 281.208 1516.19 286.776 1519.9 290.744C1523.61 294.712 1528.61 296.696 1534.88 296.696C1541.28 296.696 1546.33 294.712 1550.05 290.744C1553.76 286.776 1555.61 281.208 1555.61 274.04V215.864H1588.45ZM1748.73 214.712C1762.05 214.712 1772.61 218.744 1780.41 226.808C1788.35 234.872 1792.32 246.072 1792.32 260.408V323H1759.68V264.824C1759.68 257.912 1757.82 252.6 1754.11 248.888C1750.53 245.048 1745.53 243.128 1739.13 243.128C1732.73 243.128 1727.68 245.048 1723.97 248.888C1720.38 252.6 1718.59 257.912 1718.59 264.824V323H1685.95V264.824C1685.95 257.912 1684.09 252.6 1680.38 248.888C1676.8 245.048 1671.81 243.128 1665.41 243.128C1659.01 243.128 1653.95 245.048 1650.24 248.888C1646.65 252.6 1644.86 257.912 1644.86 264.824V323H1612.03V215.864H1644.86V229.304C1648.19 224.824 1652.54 221.304 1657.92 218.744C1663.29 216.056 1669.37 214.712 1676.16 214.712C1684.22 214.712 1691.39 216.44 1697.66 219.896C1704.06 223.352 1709.05 228.28 1712.64 234.68C1716.35 228.792 1721.41 223.992 1727.81 220.28C1734.21 216.568 1741.18 214.712 1748.73 214.712Z" fill="#F3F3F3"/>
</svg>
