<svg width="3070" height="512" viewBox="0 0 3070 512" fill="none" xmlns="http://www.w3.org/2000/svg">
<rect width="3069.5" height="512" rx="50" fill="#6366F1"/>
<path d="M1252.65 188.216V214.52H1197.74V242.936H1238.82V268.472H1197.74V323H1164.9V188.216H1252.65ZM1302.74 180.92V323H1269.9V180.92H1302.74ZM1432.32 215.864V323H1399.49V308.408C1396.16 313.144 1391.62 316.984 1385.86 319.928C1380.23 322.744 1373.95 324.152 1367.04 324.152C1358.85 324.152 1351.62 322.36 1345.35 318.776C1339.07 315.064 1334.21 309.752 1330.75 302.84C1327.3 295.928 1325.57 287.8 1325.57 278.456V215.864H1358.21V274.04C1358.21 281.208 1360.07 286.776 1363.78 290.744C1367.49 294.712 1372.48 296.696 1378.75 296.696C1385.15 296.696 1390.21 294.712 1393.92 290.744C1397.63 286.776 1399.49 281.208 1399.49 274.04V215.864H1432.32ZM1488.74 233.72C1492.58 227.832 1497.38 223.224 1503.14 219.896C1508.9 216.44 1515.3 214.712 1522.34 214.712V249.464H1513.31C1505.12 249.464 1498.98 251.256 1494.88 254.84C1490.78 258.296 1488.74 264.44 1488.74 273.272V323H1455.9V215.864H1488.74V233.72ZM1554.54 204.728C1548.78 204.728 1544.05 203.064 1540.33 199.736C1536.75 196.28 1534.96 192.056 1534.96 187.064C1534.96 181.944 1536.75 177.72 1540.33 174.392C1544.05 170.936 1548.78 169.208 1554.54 169.208C1560.17 169.208 1564.78 170.936 1568.37 174.392C1572.08 177.72 1573.93 181.944 1573.93 187.064C1573.93 192.056 1572.08 196.28 1568.37 199.736C1564.78 203.064 1560.17 204.728 1554.54 204.728ZM1570.86 215.864V323H1538.03V215.864H1570.86ZM1700.45 215.864V323H1667.61V308.408C1664.29 313.144 1659.74 316.984 1653.98 319.928C1648.35 322.744 1642.08 324.152 1635.17 324.152C1626.97 324.152 1619.74 322.36 1613.47 318.776C1607.2 315.064 1602.33 309.752 1598.88 302.84C1595.42 295.928 1593.69 287.8 1593.69 278.456V215.864H1626.33V274.04C1626.33 281.208 1628.19 286.776 1631.9 290.744C1635.61 294.712 1640.61 296.696 1646.88 296.696C1653.28 296.696 1658.33 294.712 1662.05 290.744C1665.76 286.776 1667.61 281.208 1667.61 274.04V215.864H1700.45ZM1860.73 214.712C1874.05 214.712 1884.61 218.744 1892.41 226.808C1900.35 234.872 1904.32 246.072 1904.32 260.408V323H1871.68V264.824C1871.68 257.912 1869.82 252.6 1866.11 248.888C1862.53 245.048 1857.53 243.128 1851.13 243.128C1844.73 243.128 1839.68 245.048 1835.97 248.888C1832.38 252.6 1830.59 257.912 1830.59 264.824V323H1797.95V264.824C1797.95 257.912 1796.09 252.6 1792.38 248.888C1788.8 245.048 1783.81 243.128 1777.41 243.128C1771.01 243.128 1765.95 245.048 1762.24 248.888C1758.65 252.6 1756.86 257.912 1756.86 264.824V323H1724.03V215.864H1756.86V229.304C1760.19 224.824 1764.54 221.304 1769.92 218.744C1775.29 216.056 1781.37 214.712 1788.16 214.712C1796.22 214.712 1803.39 216.44 1809.66 219.896C1816.06 223.352 1821.05 228.28 1824.64 234.68C1828.35 228.792 1833.41 223.992 1839.81 220.28C1846.21 216.568 1853.18 214.712 1860.73 214.712Z" fill="#F3F3F3"/>
</svg>
