<svg width="3687" height="615" viewBox="0 0 3687 615" fill="none" xmlns="http://www.w3.org/2000/svg">
<rect width="3687" height="615" rx="50" fill="url(#paint0_linear_304_16)"/>
<path d="M1321 419V211.1H1460.2V250.4H1367.8V293.9H1450V333.2H1367.8V419H1321ZM1553.27 422C1540.27 421.8 1529.67 420.4 1521.47 417.8C1513.47 415.2 1507.07 411.6 1502.27 407C1497.67 402.2 1494.47 396.5 1492.67 389.9C1491.07 383.1 1490.27 375.5 1490.27 367.1V193.4L1534.97 186.2V358.1C1534.97 362.1 1535.27 365.7 1535.87 368.9C1536.47 372.1 1537.57 374.8 1539.17 377C1540.97 379.2 1543.47 381 1546.67 382.4C1549.87 383.8 1554.17 384.7 1559.57 385.1L1553.27 422ZM1719.89 413.6C1712.29 415.8 1702.49 417.8 1690.49 419.6C1678.49 421.6 1665.89 422.6 1652.69 422.6C1639.29 422.6 1628.09 420.8 1619.09 417.2C1610.29 413.6 1603.29 408.6 1598.09 402.2C1592.89 395.6 1589.19 387.8 1586.99 378.8C1584.79 369.8 1583.69 359.9 1583.69 349.1V261.2H1628.39V343.7C1628.39 358.1 1630.29 368.5 1634.09 374.9C1637.89 381.3 1644.99 384.5 1655.39 384.5C1658.59 384.5 1661.99 384.4 1665.59 384.2C1669.19 383.8 1672.39 383.4 1675.19 383V261.2H1719.89V413.6ZM1856.95 300.8C1852.95 299.8 1848.25 298.8 1842.85 297.8C1837.45 296.6 1831.65 296 1825.45 296C1822.65 296 1819.25 296.3 1815.25 296.9C1811.45 297.3 1808.55 297.8 1806.55 298.4V419H1761.85V269.6C1769.85 266.8 1779.25 264.2 1790.05 261.8C1801.05 259.2 1813.25 257.9 1826.65 257.9C1829.05 257.9 1831.95 258.1 1835.35 258.5C1838.75 258.7 1842.15 259.1 1845.55 259.7C1848.95 260.1 1852.35 260.7 1855.75 261.5C1859.15 262.1 1862.05 262.9 1864.45 263.9L1856.95 300.8ZM1933.11 419H1888.41V261.2H1933.11V419ZM1937.31 215.6C1937.31 223.8 1934.61 230.3 1929.21 235.1C1924.01 239.7 1917.81 242 1910.61 242C1903.41 242 1897.11 239.7 1891.71 235.1C1886.51 230.3 1883.91 223.8 1883.91 215.6C1883.91 207.4 1886.51 201 1891.71 196.4C1897.11 191.6 1903.41 189.2 1910.61 189.2C1917.81 189.2 1924.01 191.6 1929.21 196.4C1934.61 201 1937.31 207.4 1937.31 215.6ZM2109.83 413.6C2102.23 415.8 2092.43 417.8 2080.43 419.6C2068.43 421.6 2055.83 422.6 2042.63 422.6C2029.23 422.6 2018.03 420.8 2009.03 417.2C2000.23 413.6 1993.23 408.6 1988.03 402.2C1982.83 395.6 1979.13 387.8 1976.93 378.8C1974.73 369.8 1973.63 359.9 1973.63 349.1V261.2H2018.33V343.7C2018.33 358.1 2020.23 368.5 2024.03 374.9C2027.83 381.3 2034.93 384.5 2045.33 384.5C2048.53 384.5 2051.93 384.4 2055.53 384.2C2059.13 383.8 2062.33 383.4 2065.13 383V261.2H2109.83V413.6ZM2238.49 335.3C2238.49 320.9 2236.59 310.7 2232.79 304.7C2229.19 298.7 2222.89 295.7 2213.89 295.7C2211.09 295.7 2208.19 295.9 2205.19 296.3C2202.19 296.5 2199.29 296.8 2196.49 297.2V419H2151.79V266.6C2155.59 265.6 2159.99 264.6 2164.99 263.6C2170.19 262.4 2175.59 261.4 2181.19 260.6C2186.99 259.6 2192.89 258.9 2198.89 258.5C2204.89 257.9 2210.79 257.6 2216.59 257.6C2227.99 257.6 2237.19 259.1 2244.19 262.1C2251.39 264.9 2257.29 268.3 2261.89 272.3C2268.29 267.7 2275.59 264.1 2283.79 261.5C2292.19 258.9 2299.89 257.6 2306.89 257.6C2319.49 257.6 2329.79 259.4 2337.79 263C2345.99 266.4 2352.49 271.3 2357.29 277.7C2362.09 284.1 2365.39 291.7 2367.19 300.5C2368.99 309.3 2369.89 319.1 2369.89 329.9V419H2325.19V335.3C2325.19 320.9 2323.29 310.7 2319.49 304.7C2315.89 298.7 2309.59 295.7 2300.59 295.7C2298.19 295.7 2294.79 296.3 2290.39 297.5C2286.19 298.7 2282.69 300.2 2279.89 302C2281.29 306.6 2282.19 311.5 2282.59 316.7C2282.99 321.7 2283.19 327.1 2283.19 332.9V419H2238.49V335.3Z" fill="#26292F"/>
<defs>
<linearGradient id="paint0_linear_304_16" x1="0" y1="0" x2="3687" y2="615" gradientUnits="userSpaceOnUse">
<stop stop-color="#A7BDEA"/>
<stop offset="1" stop-color="#F7C0EC"/>
</linearGradient>
</defs>
</svg>
